<?xml version="1.0" encoding="UTF-8"?>
<svg version="1.1" xmlns="http://www.w3.org/2000/svg" width="345" height="94">
<path d="M0 0 C2.31 0 4.62 0 7 0 C8.77965702 3.08473884 9.28436571 5.43932952 9.4140625 8.984375 C9.45273437 9.91894531 9.49140625 10.85351562 9.53125 11.81640625 C9.5621875 12.78449219 9.593125 13.75257812 9.625 14.75 C9.66367187 15.73355469 9.70234375 16.71710937 9.7421875 17.73046875 C9.83628426 20.15346037 9.92192328 22.57644796 10 25 C10.32798584 24.27820557 10.65597168 23.55641113 10.99389648 22.81274414 C12.47278366 19.5616043 13.95509401 16.31203679 15.4375 13.0625 C15.95376953 11.92619141 16.47003906 10.78988281 17.00195312 9.61914062 C17.74155273 7.99975586 17.74155273 7.99975586 18.49609375 6.34765625 C18.95169678 5.34742432 19.4072998 4.34719238 19.87670898 3.31665039 C21 1 21 1 22 0 C24.33297433 -0.04092937 26.66705225 -0.04241723 29 0 C29.95631726 3.77206939 29.94516585 6.56627866 29.22265625 10.37890625 C29.03896484 11.38244141 28.85527344 12.38597656 28.66601562 13.41992188 C28.46685547 14.45697266 28.26769531 15.49402344 28.0625 16.5625 C27.6754021 18.6257446 27.29116985 20.68952942 26.91015625 22.75390625 C26.73621338 23.66470947 26.56227051 24.5755127 26.38305664 25.51391602 C25.89847782 28.23965432 25.89847782 28.23965432 26 32 C26.99 32 27.98 32 29 32 C29.23783203 30.80503906 29.23783203 30.80503906 29.48046875 29.5859375 C30.91367309 23.07713103 32.12054994 18.62922185 37 14 C39.296537 12.8517315 40.58313167 12.88438825 43.1328125 12.90234375 C43.93847656 12.90556641 44.74414062 12.90878906 45.57421875 12.91210938 C46.41597656 12.92048828 47.25773437 12.92886719 48.125 12.9375 C48.97449219 12.94201172 49.82398437 12.94652344 50.69921875 12.95117188 C52.79950909 12.96297126 54.8997633 12.98090694 57 13 C56.7834375 14.03640625 56.566875 15.0728125 56.34375 16.140625 C56.06229463 17.51037448 55.781056 18.88016851 55.5 20.25 C55.35691406 20.93191406 55.21382813 21.61382812 55.06640625 22.31640625 C54.38748951 25.64633121 54 28.58332551 54 32 C55.32 31.67 56.64 31.34 58 31 C58.48009262 28.93771534 58.95903544 26.87516299 59.4375 24.8125 C59.70433594 23.66394531 59.97117187 22.51539062 60.24609375 21.33203125 C60.87312201 18.56076125 61.45899177 15.78908126 62 13 C64.31 13 66.62 13 69 13 C69.495 14.485 69.495 14.485 70 16 C70.350625 15.505 70.70125 15.01 71.0625 14.5 C74.02552179 12.20604764 76.37042697 12.61111718 80 13 C81.9375 14.5 81.9375 14.5 83 16 C83.515625 15.505 84.03125 15.01 84.5625 14.5 C87.87594552 12.4609566 90.18115682 12.57568409 94 13 C96.38656893 16.5798534 96.11935675 17.70211916 95.6875 21.875 C95.58824219 22.90367188 95.48898438 23.93234375 95.38671875 24.9921875 C95.03877758 27.6983966 94.57549148 30.33404802 94 33 C95.32 32.67 96.64 32.34 98 32 C98.23783203 30.80503906 98.23783203 30.80503906 98.48046875 29.5859375 C99.91367309 23.07713103 101.12054994 18.62922185 106 14 C108.296537 12.8517315 109.58313167 12.88438825 112.1328125 12.90234375 C112.93847656 12.90556641 113.74414062 12.90878906 114.57421875 12.91210938 C115.41597656 12.92048828 116.25773438 12.92886719 117.125 12.9375 C118.39923828 12.94426758 118.39923828 12.94426758 119.69921875 12.95117188 C121.79950909 12.96297126 123.8997633 12.98090694 126 13 C125.7834375 14.12019531 125.566875 15.24039063 125.34375 16.39453125 C125.06235597 17.86715999 124.78111389 19.33981776 124.5 20.8125 C124.35691406 21.55048828 124.21382812 22.28847656 124.06640625 23.04882812 C123.49073719 26.07794391 123 28.909196 123 32 C124.97536745 31.65213292 124.97536745 31.65213292 127 31 C127.33 30.34 127.66 29.68 128 29 C128.99 29 129.98 29 131 29 C130.66594467 32.00649796 129.76111354 33.30914718 127.875 35.75 C125 38 125 38 121.375 38.5 C118 38 118 38 116.0625 36.5 C115.711875 36.005 115.36125 35.51 115 35 C114.484375 35.495 113.96875 35.99 113.4375 36.5 C110.12167697 38.54050648 107.83308969 38.34224015 104 38 C101.5625 37 101.5625 37 100 36 C99.01 36.66 98.02 37.32 97 38 C90.67741935 38.4516129 90.67741935 38.4516129 87 36 C85.80006986 31.61491497 86.10106862 28.05316614 86.9375 23.625 C87.13214844 22.56539062 87.32679688 21.50578125 87.52734375 20.4140625 C87.68332031 19.61742188 87.83929688 18.82078125 88 18 C82.43859245 22.89403864 80.6207946 30.86086211 80 38 C77.69 38 75.38 38 73 38 C71.67324383 33.47497068 72.42750801 29.67874099 73.4375 25.1875 C73.58509766 24.49462891 73.73269531 23.80175781 73.88476562 23.08789062 C74.24775612 21.39003185 74.62268223 19.69473237 75 18 C68.99962576 23.69171301 67.5202522 30.11257389 66 38 C60.25 38.125 60.25 38.125 58 37 C57.01 37.495 57.01 37.495 56 38 C49.60110803 38.46537396 49.60110803 38.46537396 47.0625 36.5 C46.711875 36.005 46.36125 35.51 46 35 C45.484375 35.495 44.96875 35.99 44.4375 36.5 C41.12167697 38.54050648 38.83308969 38.34224015 35 38 C32.5625 37 32.5625 37 31 36 C30.01 36.66 29.02 37.32 28 38 C21.67741935 38.4516129 21.67741935 38.4516129 18 36 C16.65568719 30.51072271 17.18827201 25.50726218 18 20 C17.51789063 20.96421875 17.03578125 21.9284375 16.5390625 22.921875 C14.02604167 27.94791667 11.51302083 32.97395833 9 38 C7.00045254 38.04254356 4.99958364 38.04080783 3 38 C1.5000589 36.5000589 1.68392349 35.05340395 1.46484375 32.96484375 C1.37783203 32.15595703 1.29082031 31.34707031 1.20117188 30.51367188 C1.11416016 29.66353516 1.02714844 28.81339844 0.9375 27.9375 C0.84662109 27.08349609 0.75574219 26.22949219 0.66210938 25.34960938 C0.43749278 23.23348465 0.21824773 21.11679106 0 19 C-0.32613281 20.12019531 -0.65226562 21.24039063 -0.98828125 22.39453125 C-1.42918517 23.86733797 -1.87061921 25.33998607 -2.3125 26.8125 C-2.52583984 27.55048828 -2.73917969 28.28847656 -2.95898438 29.04882812 C-3.28286133 30.11713867 -3.28286133 30.11713867 -3.61328125 31.20703125 C-3.90392456 32.18893433 -3.90392456 32.18893433 -4.20043945 33.19067383 C-5.15309715 35.34644365 -6.16158127 36.53077535 -8 38 C-11.0625 38.3125 -11.0625 38.3125 -14 38 C-14.66 37.34 -15.32 36.68 -16 36 C-15.625 33.375 -15.625 33.375 -15 31 C-14.2575 31 -13.515 31 -12.75 31 C-9.17069259 29.69843367 -8.57095533 27.7999964 -6.99902344 24.46875 C-5.16288224 19.93134536 -3.96761892 15.23380416 -2.75 10.5 C-2.481875 9.48679687 -2.21375 8.47359375 -1.9375 7.4296875 C-1.28382665 4.95506697 -0.63820651 2.47864571 0 0 Z M19 15 C20 17 20 17 20 17 Z M40.8125 18.875 C38.3307936 23.15380413 38.18928522 27.1259057 38 32 C39.32 32.33 40.64 32.66 42 33 C46.17832479 27.87818251 46.74213573 23.52396607 47 17 C43.02598646 16.56613908 43.02598646 16.56613908 40.8125 18.875 Z M112 17 C107.39250693 21.87077839 106.87610489 25.43355923 107 32 C108.32 32.33 109.64 32.66 111 33 C115.17832479 27.87818251 115.74213573 23.52396607 116 17 C114.68 17 113.36 17 112 17 Z " fill="#020202" transform="translate(47,28)"/>
<path d="M0 0 C2.31 0 4.62 0 7 0 C8.32675617 4.52502932 7.57249199 8.32125901 6.5625 12.8125 C6.41490234 13.50537109 6.26730469 14.19824219 6.11523438 14.91210938 C5.75224388 16.60996815 5.37731777 18.30526763 5 20 C8.08150879 19.31330638 8.08150879 19.31330638 9.31640625 17.03125 C12.10290604 11.37089933 13.89710973 6.2162906 15 0 C17.31 0 19.62 0 22 0 C23.30150781 3.90452342 22.62254053 7.20460309 22.0625 11.1875 C21.96259766 11.93708984 21.86269531 12.68667969 21.75976562 13.45898438 C21.51260359 15.30681482 21.25710389 17.1535266 21 19 C21.99 19 22.98 19 24 19 C24.23783203 17.80503906 24.23783203 17.80503906 24.48046875 16.5859375 C25.91367309 10.07713103 27.12054994 5.62922185 32 1 C34.296537 -0.1482685 35.58313167 -0.11561175 38.1328125 -0.09765625 C38.93847656 -0.09443359 39.74414062 -0.09121094 40.57421875 -0.08789062 C41.83685547 -0.07532227 41.83685547 -0.07532227 43.125 -0.0625 C43.97449219 -0.05798828 44.82398438 -0.05347656 45.69921875 -0.04882812 C47.79950909 -0.03702874 49.8997633 -0.01909306 52 0 C51.7834375 1.03640625 51.566875 2.0728125 51.34375 3.140625 C51.06229463 4.51037448 50.781056 5.88016851 50.5 7.25 C50.35691406 7.93191406 50.21382813 8.61382812 50.06640625 9.31640625 C49.38748951 12.64633121 49 15.58332551 49 19 C50.97536745 18.65213292 50.97536745 18.65213292 53 18 C53.33 17.34 53.66 16.68 54 16 C54.99 16 55.98 16 57 16 C56.1690807 19.11594739 55.48993358 21.45562935 53.3125 23.875 C50.04187072 25.46611695 47.5855035 25.39114584 44 25 C42.0625 23.5 42.0625 23.5 41 22 C40.484375 22.495 39.96875 22.99 39.4375 23.5 C36.12167697 25.54050648 33.83308969 25.34224015 30 25 C27.5625 24 27.5625 24 26 23 C25.01 23.66 24.02 24.32 23 25 C19.5625 25.375 19.5625 25.375 16 25 C13.5625 23 13.5625 23 12 21 C11.484375 21.66 10.96875 22.32 10.4375 23 C8 25 8 25 4.4375 25.4375 C1 25 1 25 -0.6953125 23.75 C-3.73284084 19.67571049 -2.19489886 13.41759766 -1.54296875 8.67578125 C-1.0658616 5.77538164 -0.55544375 2.88632377 0 0 Z M35.8125 5.875 C33.3307936 10.15380413 33.18928522 14.1259057 33 19 C34.32 19.33 35.64 19.66 37 20 C41.17832479 14.87818251 41.74213573 10.52396607 42 4 C38.02598646 3.56613908 38.02598646 3.56613908 35.8125 5.875 Z " fill="#010101" transform="translate(220,41)"/>
<path d="M0 0 C0.99245476 0.00212242 0.99245476 0.00212242 2.00495911 0.00428772 C4.11402953 0.00987629 6.22299302 0.0224266 8.33203125 0.03515625 C9.76367034 0.04017273 11.1953111 0.04473538 12.62695312 0.04882812 C16.13284713 0.05984195 19.63867875 0.0770987 23.14453125 0.09765625 C23.71533203 1.98950195 23.71533203 1.98950195 24.14453125 4.09765625 C23.01171875 5.828125 23.01171875 5.828125 21.14453125 7.09765625 C18.83984375 7.4609375 18.83984375 7.4609375 16.26953125 7.41015625 C15.42648438 7.40628906 14.5834375 7.40242188 13.71484375 7.3984375 C11.14453125 7.09765625 11.14453125 7.09765625 6.14453125 5.09765625 C5.81453125 8.72765625 5.48453125 12.35765625 5.14453125 16.09765625 C8.11453125 16.09765625 11.08453125 16.09765625 14.14453125 16.09765625 C14.47453125 16.75765625 14.80453125 17.41765625 15.14453125 18.09765625 C14.81453125 18.75765625 14.48453125 19.41765625 14.14453125 20.09765625 C10.84453125 20.09765625 7.54453125 20.09765625 4.14453125 20.09765625 C3.81050059 22.91007507 3.4772735 25.72258497 3.14453125 28.53515625 C3.04914063 29.33759766 2.95375 30.14003906 2.85546875 30.96679688 C2.36008669 34.52296754 2.36008669 34.52296754 2.14453125 38.09765625 C-0.1884165 38.14007348 -2.52249442 38.13858562 -4.85546875 38.09765625 C-5.85546875 37.09765625 -5.85546875 37.09765625 -6.0390625 33.28125 C-5.97338795 27.46386793 -4.96810296 21.86867126 -3.91796875 16.16015625 C-3.73556641 15.12052734 -3.55316406 14.08089844 -3.36523438 13.00976562 C-2.00205405 5.39082684 -2.00205405 5.39082684 -0.85546875 3.09765625 C-4.60698019 4.88673347 -4.60698019 4.88673347 -6.66796875 8.28515625 C-6.72984375 8.88328125 -6.79171875 9.48140625 -6.85546875 10.09765625 C-5.86546875 10.42765625 -4.87546875 10.75765625 -3.85546875 11.09765625 C-4.84546875 12.58265625 -4.84546875 12.58265625 -5.85546875 14.09765625 C-9.01275381 14.50071392 -11.00777738 14.58986414 -13.79296875 12.97265625 C-14.85546875 11.09765625 -14.85546875 11.09765625 -14.79296875 8.16015625 C-13.73660187 4.70935778 -12.65734727 3.32267743 -9.85546875 1.09765625 C-6.37764292 -0.06161903 -3.66743618 -0.01547441 0 0 Z " fill="#010101" transform="translate(200.85546875,27.90234375)"/>
</svg>
